<svg width="460" height="360" viewBox="0 0 460 360" fill="none" xmlns="http://www.w3.org/2000/svg">
<path d="M253.454 39.7223L98.558 96.1512C84.3644 101.322 73.2693 112.633 68.3726 126.923L60.2928 150.503C50.5675 178.885 67.8529 209.382 97.1997 215.618L147.574 226.323C168.337 230.736 179.197 253.706 169.429 272.552C159.302 292.093 171.367 315.803 193.126 319.117L332.425 340.336C366.57 345.537 395.58 315.375 389.054 281.458L381.927 244.421C379.837 233.557 381.408 222.306 386.397 212.431L416.857 152.126C429.914 126.274 418.345 94.7708 391.66 83.5143L290.002 40.6329C278.371 35.7267 265.315 35.4015 253.454 39.7223Z" fill="#FFFBEB"/>
<g clip-path="url(#clip0_5193_8543)">
<path d="M122.507 22.1953H327.082C330.928 22.1953 334.475 24.4407 337.092 28.235C339.707 32.0269 341.344 37.3081 341.344 43.1824V268.204C341.344 274.077 339.696 279.34 337.075 283.114C334.452 286.891 330.904 289.12 327.082 289.12H122.507C118.66 289.12 115.1 286.873 112.471 283.087C109.843 279.304 108.195 274.041 108.195 268.204V43.184C108.22 37.3094 109.869 32.0278 112.49 28.2356C115.114 24.4407 118.661 22.1953 122.507 22.1953Z" fill="white" stroke="#4B5563" stroke-width="1.5"/>
<path d="M163.741 49.2578H205.398C209.213 49.2578 212.335 52.5473 212.335 56.5678V56.8811C212.335 60.9016 209.213 64.1911 205.398 64.1911H163.741C159.926 64.1911 156.805 60.9016 156.805 56.8811V56.5678C156.805 52.5473 159.926 49.2578 163.741 49.2578Z" fill="#FEF3C7"/>
<path d="M238.374 49.2578H272.625C276.748 49.2578 280.091 52.6008 280.091 56.7245C280.091 60.8482 276.748 64.1911 272.625 64.1911H238.374C234.559 64.1911 231.438 60.9016 231.438 56.8811V56.5678C231.438 52.5473 234.559 49.2578 238.374 49.2578Z" fill="#FEF3C7"/>
<path d="M194.991 148.453H216.593C220.408 148.453 223.529 151.743 223.529 155.763V156.076C223.529 160.097 220.408 163.386 216.593 163.386H194.991C191.176 163.386 188.055 160.097 188.055 156.076V155.763C188.055 151.69 191.176 148.453 194.991 148.453Z" fill="#C7D2FE"/>
<path d="M173.686 250.438H195.288C199.103 250.438 202.225 253.727 202.225 257.748V258.061C202.225 262.081 199.103 265.371 195.288 265.371H173.686C169.871 265.371 166.75 262.081 166.75 258.061V257.748C166.75 253.675 169.871 250.438 173.686 250.438Z" fill="#FEF3C7"/>
<path d="M220.858 250.438H262.724C266.539 250.438 269.661 253.727 269.661 257.748V258.061C269.661 262.081 266.539 265.371 262.724 265.371H220.858C217.043 265.371 213.922 262.081 213.922 258.061V257.748C213.922 253.675 216.994 250.438 220.858 250.438Z" fill="#FEF3C7"/>
<path d="M194.991 196.141H268.765C272.58 196.141 275.701 199.43 275.701 203.451V203.764C275.701 207.784 272.58 211.074 268.765 211.074H194.991C191.176 211.074 188.055 207.784 188.055 203.764V203.451C188.055 199.43 191.176 196.141 194.991 196.141Z" fill="#E5E7EB"/>
<path d="M164.741 98.8203H205.398C209.213 98.8203 212.335 102.11 212.335 106.13V106.444C212.335 110.464 209.213 113.754 205.398 113.754H164.741C160.926 113.754 157.805 110.464 157.805 106.444V106.13C157.805 102.11 160.926 98.8203 164.741 98.8203Z" fill="#E5E7EB"/>
<path d="M239.585 98.6797H292.335C296.15 98.6797 299.271 101.969 299.271 105.99V106.303C299.271 110.324 296.15 113.613 292.335 113.613H239.585C235.77 113.613 232.648 110.324 232.648 106.303V105.99C232.648 101.917 235.77 98.6797 239.585 98.6797Z" fill="#E5E7EB"/>
<path d="M122.507 21.4453H150.55V289.87H122.507C114.184 289.87 107.445 280.145 107.445 268.204V43.1824C107.445 31.1698 114.184 21.4453 122.507 21.4453Z" fill="white"/>
<path d="M122.507 22.1953H150.8V289.12H122.507C118.66 289.12 115.1 286.873 112.471 283.087C109.843 279.304 108.195 274.041 108.195 268.204V43.1824C108.195 37.3093 109.844 32.0284 112.471 28.2363C115.101 24.4415 118.66 22.1953 122.507 22.1953Z" fill="#F3F4F6" fill-opacity="0.5" stroke="#4B5563" stroke-width="1.5"/>
<path d="M340.502 82.9375H151.047" stroke="#EDEDED" stroke-width="1.5" stroke-linejoin="round"/>
<path d="M340.502 131.203H151.047" stroke="#EDEDED" stroke-width="1.5" stroke-linejoin="round"/>
<path d="M340.502 180.188H151.047" stroke="#EDEDED" stroke-width="1.5" stroke-linejoin="round"/>
<path d="M340.502 226.234H151.047" stroke="#EDEDED" stroke-width="1.5" stroke-linejoin="round"/>
<path d="M150.805 22.9375V288.36" stroke="#EDEDED" stroke-width="1.5" stroke-linejoin="round"/>
<path d="M124.188 49.4844H133.799" stroke="#4B5563" stroke-width="1.5" stroke-linecap="round" stroke-linejoin="round"/>
<path d="M124.188 67.4844H133.799" stroke="#4B5563" stroke-width="1.5" stroke-linecap="round" stroke-linejoin="round"/>
<path d="M124.188 85.4844H133.799" stroke="#4B5563" stroke-width="1.5" stroke-linecap="round" stroke-linejoin="round"/>
<path d="M124.188 103.484H133.799" stroke="#4B5563" stroke-width="1.5" stroke-linecap="round" stroke-linejoin="round"/>
<path d="M124.188 121.484H133.799" stroke="#4B5563" stroke-width="1.5" stroke-linecap="round" stroke-linejoin="round"/>
</g>
<g clip-path="url(#clip1_5193_8543)">
<path d="M313.518 267.141H415.328C424.919 267.141 432.706 274.928 432.706 284.518V295.663C432.706 305.253 424.919 313.04 415.328 313.04H313.518C303.928 313.04 296.141 305.253 296.141 295.663V284.518C296.141 274.928 303.928 267.141 313.518 267.141Z" fill="white" stroke="#4B5563" stroke-width="1.5"/>
<path d="M320.755 299.308C325.872 299.308 330.019 295.161 330.019 290.045C330.019 284.928 325.872 280.781 320.755 280.781C315.639 280.781 311.492 284.928 311.492 290.045C311.492 295.161 315.639 299.308 320.755 299.308Z" fill="#F3F4F6" stroke="#4B5563" stroke-width="1.5" stroke-linecap="round" stroke-linejoin="round"/>
<path d="M327.312 296.602L330.134 299.423L327.312 296.602Z" fill="#4B5563"/>
<path d="M327.312 296.602L330.134 299.423" stroke="#4B5563" stroke-width="1.5" stroke-linecap="round" stroke-linejoin="round"/>
<path d="M341.707 298.086H414.673H341.707Z" fill="#4B5563"/>
<path d="M341.707 298.086H414.673" stroke="#4B5563" stroke-width="1.5" stroke-linecap="round" stroke-linejoin="round"/>
</g>
<g clip-path="url(#clip2_5193_8543)">
<path d="M46.7414 349.743L34.6758 341.356L33.0143 338.587C32.8956 334.987 32.8956 332.06 33.0538 328.42L33.845 327.312L64.3058 327.787L64.5036 328.737C64.1476 331.862 63.9498 334.433 65.6904 337.558L65.9673 339.972L56.3939 349.743H46.7414Z" fill="#FFCDBD"/>
<path d="M99.7872 349.749L84.7546 337.762C84.2799 334.281 84.0821 332.897 83.7656 329.376L86.4557 318.734L113.593 325.934L115.374 328.466C115.967 332.343 116.719 334.598 118.855 337.288L119.369 339.187L109.835 349.709H99.7476L99.7872 349.749Z" fill="#FFCDBD"/>
<path d="M117.951 238.068C117.159 238.029 116.408 237.752 115.854 237.237C115.577 237.316 115.3 237.356 114.984 237.356C112.61 237.356 111.305 234.864 111.146 234.508C109.248 234.033 107.665 232.728 106.834 230.987C104.223 225.805 101.692 219.633 98.2896 210.377L98.25 210.297L121.155 203.414L121.432 204.601C123.528 213.146 124.755 218.407 123.726 219.989C123.528 220.266 123.252 220.464 122.935 220.543C122.975 221.414 123.331 230.512 123.331 233.321C123.37 234.231 123.093 235.141 122.46 235.853C122.025 236.328 121.392 236.604 120.72 236.604C120.522 236.604 120.364 236.565 120.166 236.525C120.126 236.842 119.849 237.752 118.544 238.068C118.386 238.068 118.188 238.068 117.951 238.068Z" fill="#FFCDBD"/>
<path d="M120.159 236.364L116.242 223.547" stroke="#4B5563" stroke-width="1.5" stroke-linecap="round" stroke-linejoin="round"/>
<path d="M115.851 237.157L111.578 224.695" stroke="#4B5563" stroke-width="1.5" stroke-linecap="round" stroke-linejoin="round"/>
<path d="M122.851 220.42C120.121 220.024 117.787 214.209 117.787 214.209C117.787 214.209 114.662 213.813 112.328 211.875" stroke="#4B5563" stroke-width="1.5" stroke-linecap="round" stroke-linejoin="round"/>
<path d="M54.4141 349.747L54.4536 349.668C56.036 343.457 59.7941 339.383 65.6094 337.563L65.6885 337.523L65.7281 337.563C66.8753 339.778 68.8928 341.796 71.8993 343.695C74.6685 345.435 76.2904 346.543 77.6354 348.719L78.4662 350.301C78.5058 350.38 78.4662 350.459 78.3871 350.459L54.4141 349.747Z" fill="#111827"/>
<path d="M34.1233 350.145C33.9255 350.145 33.7673 349.987 33.7277 349.789C33.3717 346.347 33.0947 342.352 33.0156 338.673V338.594H33.0947C41.8374 339.424 46.2285 346.189 47.3757 349.631L47.4153 349.75L34.1233 350.145Z" fill="#111827"/>
<path d="M108.094 349.742V349.663C108.489 346.499 111.615 339.338 118.854 337.281H118.893L118.933 337.321C120.436 339.378 122.493 341.316 125.223 343.294C127.873 345.193 129.535 346.696 130.524 347.883C130.999 348.437 131.394 349.11 131.671 349.782L131.829 350.178L108.094 349.742Z" fill="#111827"/>
<path d="M86.6962 349.657C85.9842 345.978 85.4699 342.893 84.9161 338.937L84.7578 337.75H85.2721C91.0082 338.304 97.6542 342.418 100.463 349.618L100.502 349.737L86.6962 349.657Z" fill="#111827"/>
<path d="M79.7718 137.708C89.3215 137.708 97.0593 129.966 97.0593 120.42C97.0593 110.871 89.3215 103.133 79.7718 103.133C70.2262 103.133 62.4844 110.871 62.4844 120.42C62.4844 129.966 70.2262 137.708 79.7718 137.708Z" fill="#231F20"/>
<path d="M63.5136 119.902V119.823C63.2367 114.285 65.0169 104.355 64.9773 99.4103C64.8587 88.3733 70.7135 81.2921 80.6033 80.5405C81.5923 80.4614 82.5417 80.4218 83.4912 80.4218C90.9283 80.4218 93.6579 79.3141 96.8622 84.4173C98.9589 87.0678 99.1567 91.2611 99.5918 95.3753C99.7896 97.2741 99.9874 99.2125 100.343 101.191L100.423 101.705C101.214 106.017 102.005 110.487 99.5523 114.087C97.5348 117.014 93.5393 117.647 90.5327 117.647C89.2668 117.647 88.0009 117.529 86.735 117.331L86.7746 119.546L86.6955 119.981L63.5136 119.902Z" fill="#FFCDBD"/>
<path opacity="0.3" d="M80.125 115C82.2216 115.949 84.437 116.82 86.7314 117.255H86.8105V119.787L86.0985 121.527L80.125 115Z" fill="black"/>
<path d="M76.9254 106.376L74.1562 104.398" stroke="#4B5563" stroke-width="1.5" stroke-linecap="round" stroke-linejoin="round"/>
<path d="M86.732 117.332C85.1101 116.818 84.2002 116.541 81.9453 115.789" stroke="#4B5563" stroke-width="1.5" stroke-linecap="round" stroke-linejoin="round"/>
<path d="M93.5005 100.438L93.817 101.308C93.9752 101.783 93.8961 102.336 93.5401 102.732L93.4609 102.851" stroke="black" stroke-width="1.5" stroke-linecap="round" stroke-linejoin="round"/>
<path d="M94.802 106.968C94.2482 107.404 92.4285 107.601 91.2812 106.375" stroke="black" stroke-width="1.5" stroke-linecap="round" stroke-linejoin="round"/>
<path d="M88.6692 100.838C89.2388 100.838 89.6977 100.375 89.6977 99.8098C89.6977 99.2401 89.2388 98.7812 88.6692 98.7812C88.1035 98.7812 87.6406 99.2401 87.6406 99.8098C87.6406 100.375 88.1035 100.838 88.6692 100.838Z" fill="#231F20"/>
<path d="M96.8567 100.041C97.4263 100.041 97.8852 99.5786 97.8852 99.0129C97.8852 98.4433 97.4263 97.9844 96.8567 97.9844C96.291 97.9844 95.8281 98.4433 95.8281 99.0129C95.8281 99.5786 96.291 100.041 96.8567 100.041Z" fill="#231F20"/>
<path d="M83.6899 328.377V328.298C81.9888 317.142 82.8987 306.184 83.7295 295.661C84.9162 281.104 86.0239 267.337 80.6834 253.649C78.8241 266.031 75.5802 279.165 72.455 291.864C69.4485 304.048 66.3629 316.667 64.5431 328.338L64.5036 328.694L33.0538 328.417V328.338C32.5 315.481 37.0493 299.973 41.0844 286.286C43.6162 277.662 45.792 270.225 46.3854 264.647C46.3854 258.001 46.1084 250.88 45.792 243.324C44.8425 220.301 43.8931 196.446 51.1325 182.719L51.172 182.68H101.136V182.719C101.294 183.194 115.773 229.795 115.97 271.016C116.01 280.945 115.654 292.18 115.337 302.07C115.298 303.929 115.219 305.71 115.179 307.411C115.14 309.665 115.061 311.643 115.021 313.384C114.863 319.397 114.744 323.037 115.417 328.377V328.456L83.769 329.366L83.6899 328.377Z" fill="#A5B4FC"/>
<path opacity="0.3" d="M83.7653 329.366L83.6862 328.298C81.9852 317.142 82.895 306.184 83.7258 295.661C84.9126 281.103 86.0202 267.337 80.6797 253.649L83.6071 219.114C83.6466 219.035 85.5455 219.351 86.4554 219.826C88.5125 220.933 88.9476 222.12 89.3432 223.149C91.4399 228.766 94.9211 250.603 92.8244 278.018C91.3212 298.035 91.4003 310.615 91.7168 317.656C92.0728 325.291 92.8244 328.219 92.8244 328.258L92.9036 329.049L83.7653 329.366Z" fill="black"/>
<path d="M80.6797 253.653C82.1434 240.717 82.539 229.64 83.6071 219.117" stroke="#4B5563" stroke-width="1.5" stroke-linecap="round" stroke-linejoin="round"/>
<path d="M46.7812 196.566C48.3636 187.626 50.6976 182.72 50.6976 182.641L50.7372 182.602H101.096V182.641C101.096 182.681 102.718 187.863 104.854 196.131L104.894 196.21L46.7812 196.566Z" fill="#A5B4FC"/>
<path d="M112.899 173.139L112.899 173.143C114.043 178.711 115.553 184.532 117.141 190.656C117.207 190.909 117.273 191.163 117.339 191.417C117.452 191.857 117.566 192.299 117.68 192.742C118.562 196.158 119.462 199.647 120.3 203.105C120.358 203.372 120.448 203.751 120.526 204.077L108.39 207.545C107.125 202.719 105.922 198.194 104.901 194.355C104.544 193.009 104.208 191.747 103.9 190.586C103.285 188.265 102.78 186.348 102.427 184.965C102.25 184.273 102.112 183.719 102.018 183.316C101.97 183.114 101.935 182.955 101.911 182.838C101.884 182.703 101.881 182.667 101.882 182.684L101.845 181.973L101.133 181.973L57.4985 182.013L57.1882 182.013L57.0454 182.156C57.0394 182.159 57.0331 182.162 57.0265 182.166C56.9506 182.205 56.8362 182.264 56.6853 182.338C56.3839 182.487 55.9402 182.7 55.3736 182.955C54.2402 183.464 52.6183 184.142 50.6624 184.818C46.7426 186.174 41.5201 187.512 36.2162 187.512C35.531 187.512 34.8812 187.474 34.2075 187.434C28.0669 187.009 24.0391 184.865 21.9131 181.163L21.9123 181.162C20.2434 178.269 19.8919 174.645 20.3456 170.967C20.7983 167.297 22.0445 163.65 23.4763 160.787C27.7196 152.3 33.7995 143.286 40.6529 136.173C47.5219 129.043 55.0697 123.925 62.2454 123.023C62.4788 123.003 62.7105 122.974 62.9301 122.947L62.9753 122.942C63.2182 122.912 63.4501 122.884 63.6884 122.866L64.4136 122.81L64.3801 122.084L64.2976 120.297H86.0231V121.881V122.488L86.617 122.614C90.2703 123.392 92.9112 124.452 95.0488 125.812C97.1156 127.127 98.7475 128.746 100.383 130.733V130.815L100.603 131.035L100.61 131.042C103.497 134.751 105.92 141.677 107.855 149.041C109.785 156.388 111.195 164.027 112.105 169.012C112.422 170.758 112.7 172.147 112.898 173.136L112.899 173.139Z" fill="white" stroke="#4B5563" stroke-width="1.5"/>
<path opacity="0.2" d="M102.478 161.4C102.716 161.321 102.953 161.281 103.23 161.281C106.869 161.281 107.74 171.567 108.452 180.626C108.65 183.158 108.847 185.531 109.085 187.47C110.272 196.845 113.001 206.735 113.041 206.854L113.08 206.933L107.858 208.476L101.094 182.643C106.553 177.778 102.478 161.4 102.478 161.4Z" fill="#080808"/>
<path d="M58.3323 196.57C52.794 231.383 59.5191 245.228 55.5631 272.92C53.0313 290.761 44.8821 306.546 43.6953 328.303" stroke="#4B5563" stroke-width="1.5" stroke-linecap="round" stroke-linejoin="round"/>
<path d="M50.889 157.406L47.2891 164.013" stroke="#4B5563" stroke-width="1.5" stroke-linecap="round" stroke-linejoin="round"/>
<path d="M96.8988 84.2182C93.6945 79.115 88.4726 76.6623 81.0355 76.6623C80.086 76.6623 79.1366 76.7019 78.1476 76.781C76.7631 76.8997 75.4576 77.137 74.2313 77.4535C75.1411 75.3568 75.5367 73.0228 75.418 70.5702C74.9433 63.0539 68.8907 56.9617 61.3744 56.4474C52.3153 55.8541 44.799 63.2517 45.2342 72.3108C45.5902 79.5106 51.089 85.5236 58.2097 86.5126C60.3459 86.7895 62.3634 86.6313 64.2623 86.117C63.1151 88.7675 62.4821 91.9323 62.5217 95.4926C58.447 94.0289 54.1746 93.2377 49.8626 93.1982C43.4936 93.1982 38.2322 95.0574 34.1575 98.7365C25.6918 106.371 22.6062 118.2 26.483 128.248C29.6478 136.516 36.6498 141.223 45.6693 141.223C54.2142 141.223 61.058 138.612 66.1216 133.549C73.7961 125.637 74.073 114.956 73.9939 111.87V111.831L73.9543 111.791C72.6093 110.763 71.383 109.536 70.3149 108.191C68.8116 106.213 67.3479 103.286 68.772 100.438C69.6424 98.7365 70.9478 97.8662 72.6884 97.8662C76.1301 97.8662 80.2047 101.268 80.2047 101.268C82.3409 99.4485 82.3805 95.8882 82.2618 94.3849C82.2618 94.1476 82.4992 93.9498 82.7365 94.0289C83.7255 94.3849 84.8332 94.5827 85.9013 94.6223C87.4045 94.6223 88.5913 94.108 89.3825 93.1586C90.3715 91.9323 90.6484 90.073 90.2133 87.5807C90.1737 87.3434 90.4111 87.1456 90.6484 87.1851C91.5978 87.4225 92.5473 87.5412 93.5362 87.5412C96.8592 87.5412 97.69 85.9192 97.7296 85.8401V85.8005C97.4922 85.2467 97.2153 84.7324 96.8988 84.2182Z" fill="#231F20"/>
<path d="M64.2266 86.1562C66.1254 81.8047 69.5671 78.7981 74.2351 77.4531" stroke="#231F20" stroke-width="1.5" stroke-linecap="round" stroke-linejoin="round"/>
<path opacity="0.2" d="M57.5038 182.761L66.2069 177.619L59.3236 160.45L46.625 163.536L58.6906 151.035C59.0071 150.837 59.3631 150.758 59.7587 150.758C60.4312 150.758 61.3411 151.074 62.0136 152.657C62.3301 153.606 62.5675 154.556 62.7652 155.505C64.1103 161.597 67.3146 175.838 79.0242 182.643L79.2615 182.801L57.5038 182.761Z" fill="#080808"/>
<path d="M58.9609 160.489L59.0401 160.449C61.3741 159.183 63.5498 157.759 65.6465 156.137C70.4727 152.379 73.2419 151.232 73.2419 151.232C73.2419 151.232 73.5188 151.113 73.5584 151.113C80.1252 147.949 86.4152 151.786 74.31 154.951C75.1012 154.753 83.8834 152.735 89.6591 152.735C91.5184 152.735 92.8634 152.933 93.7337 153.368C94.2084 153.566 94.5644 153.962 94.7227 154.436C94.8809 155.069 94.8413 155.742 94.5644 156.335C95.4347 156.652 96.1072 157.364 96.4237 158.274C96.6215 159.065 96.5028 159.856 96.0677 160.568C96.6215 161.003 96.938 161.636 96.938 162.309C96.938 163.021 96.6611 164.01 95.2369 164.84C93.1798 165.988 86.0987 167.807 84.1603 168.282C86.1778 168.44 93.5754 169.113 94.3271 170.774C94.4457 171.091 94.3666 171.407 94.1293 171.645C93.4963 172.396 90.8458 172.594 87.7206 172.871C84.4768 173.108 80.7977 173.425 78.4637 174.374C74.5078 175.957 70.3541 177.104 66.1608 177.776H66.0816L58.9609 160.489Z" fill="#FFCDBD"/>
<path d="M66.0815 177.617L57 182.002" stroke="#4B5563" stroke-width="1.5" stroke-linecap="round" stroke-linejoin="round"/>
<path d="M59.0816 160.531L40.7656 165.951" stroke="#4B5563" stroke-width="1.5" stroke-linecap="round" stroke-linejoin="round"/>
<path d="M94.368 156.375C84.7155 157.008 75.0234 159.342 75.0234 159.342" stroke="#4B5563" stroke-width="1.5" stroke-linecap="round" stroke-linejoin="round"/>
<path d="M95.9099 160.531C89.4222 161.283 76.9609 163.973 76.9609 163.973" stroke="#4B5563" stroke-width="1.5" stroke-linecap="round" stroke-linejoin="round"/>
<path d="M84.1648 168.281L78.5078 169.468" stroke="#4B5563" stroke-width="1.5" stroke-linecap="round" stroke-linejoin="round"/>
<path d="M34.5573 355.48C34.5178 355.48 34.5178 355.48 34.5178 355.441C34.4782 355.124 34.0826 353.067 33.7266 349.665V349.586H78.0727L78.1122 349.625C80.1298 352.869 79.8133 355.441 79.8133 355.48H34.5573Z" fill="#111827"/>
<path d="M88.0398 355.48C87.9607 355.48 87.9212 355.441 87.9212 355.362C87.8025 354.887 87.3278 352.869 86.7344 349.665V349.586H131.516H131.634C133.652 352.83 133.256 355.441 133.256 355.48V355.559L88.0398 355.48Z" fill="#111827"/>
<path d="M62.4844 95.5312L62.6822 102.217" stroke="#231F20" stroke-width="1.5" stroke-linecap="round" stroke-linejoin="round"/>
<path d="M101.094 182.678C106.949 176.823 102.518 165.193 102.281 158.547C102.162 155.501 102.004 151.743 101.845 147.984" stroke="#4B5563" stroke-width="1.5" stroke-linecap="round" stroke-linejoin="round"/>
</g>
<path d="M350 49C361.045 49 370 40.0451 370 29C370 17.9549 361.045 9 350 9C338.955 9 330 17.9549 330 29C330 40.0451 338.955 49 350 49Z" fill="#6366F1"/>
<path d="M350 21V36.9999" stroke="white" stroke-width="2" stroke-linecap="round" stroke-linejoin="round"/>
<path d="M342 29H358" stroke="white" stroke-width="2" stroke-linecap="round" stroke-linejoin="round"/>
<defs>
<clipPath id="clip0_5193_8543">
<rect width="236" height="269" fill="white" transform="translate(107 21)"/>
</clipPath>
<clipPath id="clip1_5193_8543">
<rect width="138.927" height="48" fill="white" transform="translate(295 266)"/>
</clipPath>
<clipPath id="clip2_5193_8543">
<rect width="114.876" height="300" fill="white" transform="translate(19 56)"/>
</clipPath>
</defs>
</svg>
